<svg width="250" height="250" viewBox="0 0 250 250" fill="none" xmlns="http://www.w3.org/2000/svg">
<circle cx="125" cy="125" r="125" fill="#2991d6"/>
<path fill-rule="evenodd" clip-rule="evenodd" d="M125 238C187.408 238 238 187.408 238 125C238 62.5918 187.408 12 125 12C62.5918 12 12 62.5918 12 125C12 187.408 62.5918 238 125 238ZM43.5 98.5C39.7504 100.662 38.2912 102.112 36.5 105C39.6058 109.996 42.4807 111.6 49 114.5C51.723 113.113 52.8498 112.244 54 110.5V106.5C55.9525 103.118 57.1514 101.29 60 98.5C63.5435 97.2963 65.5083 97.6866 69 99L69.5 102.5L75 103L102.5 126.5L114 116.5L85 91.5L85.5 89L76.5 80C75.4704 75.8811 84.0937 71.2062 86.5 71C88.9063 70.7938 105 70 105 70H108V68.5L106.5 67.5C89.0724 66.1284 79.6343 65.4981 71.5 68C62.408 72.0438 57.9759 76.2489 50.5 85V92.5C48.0912 95.4513 46.5694 96.7834 43.5 98.5Z" fill="white"/>
<circle cx="125" cy="125" r="104" fill="#2991d6"/>
<path d="M36.5 105C38.2912 102.112 39.7504 100.662 43.5 98.5C46.5694 96.7834 48.0912 95.4513 50.5 92.5V85C57.9759 76.2489 62.408 72.0438 71.5 68C79.6343 65.4981 89.0724 66.1284 106.5 67.5L108 68.5V70H105C105 70 88.9063 70.7938 86.5 71C84.0937 71.2062 75.4704 75.8811 76.5 80L85.5 89L85 91.5L114 116.5L102.5 126.5L75 103L69.5 102.5L69 99C65.5083 97.6866 63.5435 97.2963 60 98.5C57.1514 101.29 55.9525 103.118 54 106.5V110.5C52.8498 112.244 51.723 113.113 49 114.5C42.4807 111.6 39.6058 109.996 36.5 105Z" fill="white"/>
<path d="M116 36.5H135.5V37.5C132.545 38.3075 131.012 39.0747 128.5 41L127 58L126 90.5H125L123 58L122 41C119.934 39.4371 118.591 38.8215 116 38V36.5Z" fill="white"/>
<path d="M142 69L148 67C161.056 65.6656 167.822 65.8025 178.5 68C186.576 72.0053 190.583 75.1464 197 82L200 85.5V93.5L213 103L214 106C210.039 110.973 207.341 112.931 202 115.5L197 110L194.5 101.5C193.429 99.8908 192.783 99.0563 191 98.5C188.224 97.8444 186.592 97.7051 183.5 98L178 103H174.5L84.5 183C83.3009 185.932 82.2341 187.268 79.5 189C73.476 184.953 70.8321 182.321 67.5 177C67.9744 173.099 69.4457 172.192 72 170.5L165 92.5L166.5 92L165 89.5L173.5 81.5C173.859 79.1454 173.968 77.8273 173 75.5C169.58 73.2485 167.268 72.2088 162 71C153.653 70.2527 149.262 70.026 142 70V69Z" fill="white"/>
<path d="M147.5 145L179.5 171C182.695 173.069 183.542 174.673 183 178.5L174 188.5C170.596 188.697 169.13 187.775 167 185L164 180L136.5 154.5L147.5 145Z" fill="white"/>
<path d="M126 160.5L127 183L128.5 210H133.5C134.913 208.554 135.306 207.793 135.5 206.5H137V211C135.963 211.753 135.556 212.262 135.5 213.5H115L118 211L121.5 210L123 183L124.5 160.5H126Z" fill="white"/>
</svg>
